<svg xmlns="http://www.w3.org/2000/svg" xmlns:xlink="http://www.w3.org/1999/xlink" width="16" height="23" viewBox="0 0 16 23"><defs><path id="dfdea" d="M946.18 453h-7.36a2.87 2.87 0 0 1-2.82-2.9V436h13v14.1c0 1.6-1.26 2.9-2.82 2.9zm-9.75-16.55v13.64a2.43 2.43 0 0 0 2.39 2.46h7.36c1.32 0 2.39-1.1 2.39-2.46v-13.64z"/><path id="dfdeb" d="M950 437h-16v-2.57c0-.79.5-1.43 1.11-1.43h13.78c.61 0 1.11.64 1.11 1.43zm-15.56-.57h15.12v-2c0-.47-.3-.86-.67-.86H935.1c-.37 0-.67.39-.67.86z"/><path id="dfdec" d="M939 450c-.55 0-1-.39-1-.86v-9.28c0-.47.45-.86 1-.86s1 .39 1 .86v9.28c0 .47-.45.86-1 .86zm0-10.57c-.28 0-.5.2-.5.43v9.28c0 .24.22.43.5.43s.5-.2.5-.43v-9.28c0-.24-.22-.43-.5-.43z"/><path id="dfded" d="M942 450c-.55 0-1-.39-1-.86v-9.28c0-.47.45-.86 1-.86s1 .39 1 .86v9.28c0 .47-.45.86-1 .86zm0-10.57c-.28 0-.5.2-.5.43v9.28c0 .24.22.43.5.43s.5-.2.5-.43v-9.28c0-.24-.22-.43-.5-.43z"/><path id="dfdee" d="M946 450c-.55 0-1-.39-1-.86v-9.28c0-.47.45-.86 1-.86s1 .39 1 .86v9.28c0 .47-.45.86-1 .86zm0-10.57c-.28 0-.5.2-.5.43v9.28c0 .24.22.43.5.43s.5-.2.5-.43v-9.28c0-.24-.22-.43-.5-.43z"/><path id="dfdef" d="M944 433h-.42v-1.33c0-.55-.28-1-.62-1h-2.92c-.34 0-.62.45-.62 1V433H939v-1.33c0-.92.47-1.67 1.04-1.67h2.92c.57 0 1.04.75 1.04 1.67z"/></defs><g><g transform="translate(-934 -430)"><g><use xlink:href="#dfdea"/></g><g><use xlink:href="#dfdeb"/></g><g><use xlink:href="#dfdec"/></g><g><use xlink:href="#dfded"/></g><g><use xlink:href="#dfdee"/></g><g><use xlink:href="#dfdef"/></g></g></g></svg>