<svg xmlns="http://www.w3.org/2000/svg" xmlns:xlink="http://www.w3.org/1999/xlink" width="11" height="12" viewBox="0 0 11 12"><defs><path id="riuka" d="M1037.84 113.5l-1.85-2.39c-.09-.1-.22-.14-.33-.08-.11.06-.19.2-.19.36v1.3h-3.07c-.22 0-.4.24-.4.53v1.56c0 .3.18.52.4.52h3.07v1.3c0 .17.08.31.2.37.03.02.07.03.1.03.09 0 .16-.04.22-.11l1.85-2.4a.86.86 0 0 0 0-.99z"/><path id="riukb" d="M1032.61 116.7h-.38c-.22 0-.4.22-.4.48v1.34c0 .04-.02.07-.05.07h-3.56c-.03 0-.06-.03-.06-.07v-9.04c0-.04.03-.07.06-.07h3.56c.03 0 .06.03.06.07v1.34c0 .26.17.47.39.47h.38c.22 0 .39-.2.39-.47v-1.4c0-.79-.52-1.42-1.16-1.42h-3.68c-.64 0-1.16.63-1.16 1.41v9.18c0 .78.52 1.41 1.16 1.41h3.68c.64 0 1.16-.63 1.16-1.41v-1.41c0-.26-.17-.47-.39-.47z"/></defs><g><g transform="translate(-1027 -108)"><g><use xlink:href="#riuka"/></g><g><use xlink:href="#riukb"/></g></g></g></svg>