<svg xmlns="http://www.w3.org/2000/svg" xmlns:xlink="http://www.w3.org/1999/xlink" width="19" height="13" viewBox="0 0 19 13"><defs><path id="oekla" d="M509.73 19.73v10.8c0 .3-.25.53-.55.53h-3.8a.54.54 0 0 1-.55-.52V19.73c0-.3.24-.53.55-.53h3.8c.3 0 .55.24.55.53zm-1.13 9.87v-8.94c0-.24-.12-.43-.28-.43h-2.09c-.15 0-.27.2-.27.43v8.94c0 .24.12.44.27.44h2.1c.15 0 .27-.2.27-.44z"/><path id="oeklb" d="M506.54 21.9v-.97h1.47v.97z"/><path id="oeklc" d="M506.54 23.73v-.97h1.47v.97z"/><path id="oekld" d="M506.54 25.56v-.97h1.47v.97z"/><path id="oekle" d="M506.51 28.58c0-.4.34-.74.77-.74s.77.33.77.74c0 .4-.34.74-.77.74a.76.76 0 0 1-.77-.74z"/><path id="oeklf" d="M515.95 19.73v10.8c0 .3-.25.53-.55.53h-3.8a.54.54 0 0 1-.55-.52V19.73c0-.3.24-.53.55-.53h3.8c.3 0 .55.24.55.53zm-1.13.93c0-.24-.12-.43-.28-.43h-2.09c-.15 0-.27.2-.27.43v8.94c0 .24.12.44.27.44h2.1c.15 0 .27-.2.27-.44z"/><path id="oeklg" d="M512.77 21.9v-.97h1.47v.97z"/><path id="oeklh" d="M512.77 23.73v-.97h1.47v.97z"/><path id="oekli" d="M512.77 25.56v-.97h1.47v.97z"/><path id="oeklj" d="M512.73 28.58c0-.4.34-.74.77-.74s.77.33.77.74c0 .4-.34.74-.77.74a.76.76 0 0 1-.77-.74z"/><path id="oeklk" d="M521.59 21.46L522.8 30a.51.51 0 0 1-.44.59l-3.56.5a.52.52 0 0 1-.58-.44l-1.21-8.53a.51.51 0 0 1 .43-.58l3.56-.5c.28-.04.55.15.59.43zm-.93 1.05c-.03-.23-.18-.4-.32-.38l-1.95.28c-.15.02-.23.22-.2.45l.96 6.73c.03.23.17.4.31.38l1.96-.27c.14-.02.23-.23.2-.46z"/><path id="oekll" d="M518.91 24.01l-.13-.94 1.38-.2.13.95z"/><path id="oeklm" d="M519.16 25.77l-.13-.94 1.38-.2.13.95z"/><path id="oekln" d="M519.52 28.52a.73.73 0 0 1 .62-.82c.4-.06.77.22.82.61.06.4-.22.77-.62.82a.73.73 0 0 1-.82-.61z"/></defs><g><g transform="translate(-504 -19)"><g><g><use fill="#3b3c41" xlink:href="#oekla"/></g><g><g><use fill="#3b3c41" xlink:href="#oeklb"/></g><g><use fill="#3b3c41" xlink:href="#oeklc"/></g><g><use fill="#3b3c41" xlink:href="#oekld"/></g><g><use fill="#3b3c41" xlink:href="#oekle"/></g></g></g><g><g><use fill="#3b3c41" xlink:href="#oeklf"/></g><g><g><use fill="#3b3c41" xlink:href="#oeklg"/></g><g><use fill="#3b3c41" xlink:href="#oeklh"/></g><g><use fill="#3b3c41" xlink:href="#oekli"/></g><g><use fill="#3b3c41" xlink:href="#oeklj"/></g></g></g><g><g><use fill="#3b3c41" xlink:href="#oeklk"/></g><g><g><use fill="#3b3c41" xlink:href="#oekll"/></g><g><use fill="#3b3c41" xlink:href="#oeklm"/></g><g><use fill="#3b3c41" xlink:href="#oekln"/></g></g></g></g></g></svg>