<svg xmlns="http://www.w3.org/2000/svg" xmlns:xlink="http://www.w3.org/1999/xlink" width="12" height="11" viewBox="0 0 12 11"><defs><path id="j8qxa" d="M1033.02 55.68c1.5 0 2.72-1.27 2.72-2.83 0-1.55-1.22-2.81-2.72-2.81a2.79 2.79 0 0 0-2.73 2.83c0 1.54 1.21 2.81 2.73 2.81z"/><path id="j8qxb" d="M1035.55 55.67l-.25-.03-.16.17a2.98 2.98 0 0 1-4.27 0l-.16-.17-.23.03c-1.91.14-3.4 1.8-3.4 3.76v1.53h11.84v-1.51a3.72 3.72 0 0 0-3.37-3.78z"/></defs><g><g transform="translate(-1027 -50)"><g><use xlink:href="#j8qxa"/></g><g><use xlink:href="#j8qxb"/></g></g></g></svg>