<svg xmlns="http://www.w3.org/2000/svg" xmlns:xlink="http://www.w3.org/1999/xlink" width="15" height="12" viewBox="0 0 15 12"><defs><path id="fjmma" d="M1037.97 87.6c-.07.43-.04.88.09 1.3.03.1 0 .21-.1.28a.3.3 0 0 1-.3.03 4.86 4.86 0 0 1-1.44-1v-.14c0-2.29-1.98-4.14-4.42-4.15h-.12a3.47 3.47 0 0 1 3.52-2.92h2.25c.94 0 1.85.35 2.51.97a3.21 3.21 0 0 1 1.04 2.34 3.4 3.4 0 0 1-3.03 3.28zm-11.97.47c0-.88.37-1.73 1.04-2.35a3.68 3.68 0 0 1 2.51-.97h2.26c.94 0 1.84.35 2.51.97a3.21 3.21 0 0 1 1.04 2.35c0 1.83-1.59 3.32-3.55 3.32h-.6c-.44.8-1.27 1.3-1.86 1.58a.3.3 0 0 1-.31-.03.26.26 0 0 1-.1-.28c.14-.43.17-.87.1-1.31a3.4 3.4 0 0 1-3.04-3.28zm6.11.48c.29 0 .52-.22.52-.48 0-.27-.23-.49-.52-.49-.28 0-.52.22-.52.49 0 .26.24.48.52.48zm-1.95-.48c0 .26.24.48.52.48.29 0 .52-.22.52-.48 0-.27-.23-.49-.52-.49-.28 0-.51.22-.51.49zm-1.43 0c0 .26.24.48.52.48.29 0 .52-.22.52-.48 0-.27-.23-.49-.52-.49-.28 0-.51.22-.51.49z"/></defs><g><g transform="translate(-1026 -81)"><use fill="#84c459" xlink:href="#fjmma"/></g></g></svg>