<svg xmlns="http://www.w3.org/2000/svg" xmlns:xlink="http://www.w3.org/1999/xlink" width="20" height="15" viewBox="0 0 20 15"><defs><path id="94rva" d="M336.58 16c.1 0 .2.06.28.15l3.04 3.7c.15.18.13.46-.04.61a.4.4 0 0 1-.58-.04l-2.33-2.84v16.98c0 .24-.18.44-.4.44a.42.42 0 0 1-.42-.42V17.52l-2.42 2.72a.4.4 0 0 1-.58.03.45.45 0 0 1-.02-.61l3.13-3.53a.4.4 0 0 1 .34-.13z"/><path id="94rvb" d="M343.47 16c.22 0 .4.2.4.44v17.04l2.42-2.72a.4.4 0 0 1 .58-.02c.16.16.17.43.02.6l-3.14 3.52a.4.4 0 0 1-.6 0l-3.04-3.71a.45.45 0 0 1 .02-.61.4.4 0 0 1 .6.04l2.32 2.83V16.44c0-.24.18-.44.4-.44h.02z"/></defs><g><g transform="rotate(-90 166 181.5)"><g><use fill="#3b3c41" xlink:href="#94rva"/><use fill="#fff" fill-opacity="0" stroke="#3b3c41" stroke-miterlimit="50" stroke-width=".5" xlink:href="#94rva"/></g><g><use fill="#3b3c41" xlink:href="#94rvb"/><use fill="#fff" fill-opacity="0" stroke="#3b3c41" stroke-miterlimit="50" stroke-width=".5" xlink:href="#94rvb"/></g></g></g></svg>